<mxfile host="Electron" modified="2024-07-16T12:11:43.799Z" agent="Mozilla/5.0 (Windows NT 10.0; Win64; x64) AppleWebKit/537.36 (KHTML, like Gecko) draw.io/22.1.16 Chrome/120.0.6099.109 Electron/28.1.0 Safari/537.36" etag="lWs0XmnGv80AHcMaZ4xk" version="22.1.16" type="device">
  <diagram name="DC_Overlay" id="U2IVzn9AUUK5_WC8CkLs">
    <mxGraphModel dx="3187" dy="2676" grid="0" gridSize="10" guides="1" tooltips="1" connect="1" arrows="1" fold="1" page="0" pageScale="1" pageWidth="1169" pageHeight="827" math="0" shadow="0">
      <root>
        <mxCell id="0" />
        <mxCell id="1" parent="0" />
        <mxCell id="XTZE2WU_NWd3jXHMlwdr-1" value="POD2&lt;br style=&quot;font-size: 28px;&quot;&gt;&quot;PRODUCTION&quot;" style="rounded=1;whiteSpace=wrap;html=1;absoluteArcSize=1;arcSize=14;strokeWidth=2;align=left;horizontal=1;verticalAlign=top;fontSize=28;fontStyle=1;fillColor=none;dashed=1;" vertex="1" parent="1">
          <mxGeometry x="50" y="-638" width="547" height="927" as="geometry" />
        </mxCell>
        <mxCell id="XTZE2WU_NWd3jXHMlwdr-2" value="POD1&lt;br style=&quot;font-size: 28px;&quot;&gt;&quot;OFFICE&quot;" style="rounded=1;whiteSpace=wrap;html=1;absoluteArcSize=1;arcSize=14;strokeWidth=2;align=left;horizontal=1;verticalAlign=top;fontSize=28;fontStyle=1;fontColor=#006600;fillColor=none;dashed=1;" vertex="1" parent="1">
          <mxGeometry x="687" y="-780" width="1347" height="1067" as="geometry" />
        </mxCell>
        <mxCell id="XTZE2WU_NWd3jXHMlwdr-3" value="Vrf_ADM" style="rounded=1;whiteSpace=wrap;html=1;absoluteArcSize=1;arcSize=14;strokeWidth=2;fillColor=#f8cecc;strokeColor=#b85450;" vertex="1" parent="1">
          <mxGeometry x="886" y="-18" width="78" height="26" as="geometry" />
        </mxCell>
        <mxCell id="XTZE2WU_NWd3jXHMlwdr-4" value="spine-2-1" style="shape=mxgraph.cisco.routers.router;sketch=0;html=1;pointerEvents=1;dashed=0;fillColor=#036897;strokeColor=#ffffff;strokeWidth=2;verticalLabelPosition=bottom;verticalAlign=top;align=center;outlineConnect=0;fontStyle=1;fontSize=13;" vertex="1" parent="1">
          <mxGeometry x="104" y="-519" width="78" height="53" as="geometry" />
        </mxCell>
        <mxCell id="XTZE2WU_NWd3jXHMlwdr-5" value="spine-2-2" style="shape=mxgraph.cisco.routers.router;sketch=0;html=1;pointerEvents=1;dashed=0;fillColor=#036897;strokeColor=#ffffff;strokeWidth=2;verticalLabelPosition=bottom;verticalAlign=top;align=center;outlineConnect=0;fontStyle=1;fontSize=13;" vertex="1" parent="1">
          <mxGeometry x="386" y="-339" width="78" height="53" as="geometry" />
        </mxCell>
        <mxCell id="XTZE2WU_NWd3jXHMlwdr-6" style="edgeStyle=orthogonalEdgeStyle;rounded=0;orthogonalLoop=1;jettySize=auto;html=1;endArrow=none;endFill=0;shape=link;" edge="1" parent="1" source="XTZE2WU_NWd3jXHMlwdr-7" target="XTZE2WU_NWd3jXHMlwdr-8">
          <mxGeometry relative="1" as="geometry" />
        </mxCell>
        <mxCell id="XTZE2WU_NWd3jXHMlwdr-7" value="leaf-2.1" style="shape=mxgraph.cisco.routers.router;sketch=0;html=1;pointerEvents=1;dashed=0;fillColor=#036897;strokeColor=#ffffff;strokeWidth=2;verticalLabelPosition=bottom;verticalAlign=top;align=center;outlineConnect=0;fontStyle=1;fontSize=13;" vertex="1" parent="1">
          <mxGeometry x="63" y="-47" width="78" height="53" as="geometry" />
        </mxCell>
        <mxCell id="XTZE2WU_NWd3jXHMlwdr-8" value="leaf-2.2" style="shape=mxgraph.cisco.routers.router;sketch=0;html=1;pointerEvents=1;dashed=0;fillColor=#036897;strokeColor=#ffffff;strokeWidth=2;verticalLabelPosition=bottom;verticalAlign=top;align=center;outlineConnect=0;fontStyle=1;fontSize=13;" vertex="1" parent="1">
          <mxGeometry x="474" y="-47" width="78" height="53" as="geometry" />
        </mxCell>
        <mxCell id="XTZE2WU_NWd3jXHMlwdr-9" value="" style="endArrow=none;html=1;rounded=0;entryX=0.12;entryY=0.9;entryDx=0;entryDy=0;entryPerimeter=0;exitX=0.5;exitY=0;exitDx=0;exitDy=0;exitPerimeter=0;fontSize=8;strokeColor=#000099;" edge="1" parent="1" source="XTZE2WU_NWd3jXHMlwdr-7" target="XTZE2WU_NWd3jXHMlwdr-4">
          <mxGeometry width="50" height="50" relative="1" as="geometry">
            <mxPoint x="393" y="-79" as="sourcePoint" />
            <mxPoint x="443" y="-129" as="targetPoint" />
          </mxGeometry>
        </mxCell>
        <mxCell id="XTZE2WU_NWd3jXHMlwdr-10" value="" style="endArrow=none;html=1;rounded=0;exitX=0.88;exitY=0.1;exitDx=0;exitDy=0;exitPerimeter=0;entryX=0.12;entryY=0.9;entryDx=0;entryDy=0;entryPerimeter=0;strokeColor=#990099;" edge="1" parent="1" source="XTZE2WU_NWd3jXHMlwdr-7" target="XTZE2WU_NWd3jXHMlwdr-5">
          <mxGeometry width="50" height="50" relative="1" as="geometry">
            <mxPoint x="116" y="-95" as="sourcePoint" />
            <mxPoint x="266" y="-327" as="targetPoint" />
          </mxGeometry>
        </mxCell>
        <mxCell id="XTZE2WU_NWd3jXHMlwdr-11" value="" style="endArrow=none;html=1;rounded=0;entryX=0.5;entryY=1;entryDx=0;entryDy=0;entryPerimeter=0;exitX=0.12;exitY=0.1;exitDx=0;exitDy=0;exitPerimeter=0;strokeColor=#000099;" edge="1" parent="1" source="XTZE2WU_NWd3jXHMlwdr-8" target="XTZE2WU_NWd3jXHMlwdr-4">
          <mxGeometry width="50" height="50" relative="1" as="geometry">
            <mxPoint x="237" y="-63" as="sourcePoint" />
            <mxPoint x="287" y="-325" as="targetPoint" />
          </mxGeometry>
        </mxCell>
        <mxCell id="XTZE2WU_NWd3jXHMlwdr-12" value="" style="endArrow=none;html=1;rounded=0;entryX=0.5;entryY=1;entryDx=0;entryDy=0;entryPerimeter=0;exitX=0.5;exitY=0;exitDx=0;exitDy=0;exitPerimeter=0;strokeColor=#990099;" edge="1" parent="1" source="XTZE2WU_NWd3jXHMlwdr-8" target="XTZE2WU_NWd3jXHMlwdr-5">
          <mxGeometry width="50" height="50" relative="1" as="geometry">
            <mxPoint x="227" y="-68" as="sourcePoint" />
            <mxPoint x="593" y="-305" as="targetPoint" />
          </mxGeometry>
        </mxCell>
        <mxCell id="XTZE2WU_NWd3jXHMlwdr-13" value="" style="endArrow=none;html=1;rounded=0;fontSize=11;strokeColor=#990099;entryX=1;entryY=0.5;entryDx=0;entryDy=0;entryPerimeter=0;" edge="1" parent="1" source="XTZE2WU_NWd3jXHMlwdr-22" target="XTZE2WU_NWd3jXHMlwdr-5">
          <mxGeometry width="50" height="50" relative="1" as="geometry">
            <mxPoint x="356.3599999999997" y="-90.70000000000005" as="sourcePoint" />
            <mxPoint x="459" y="-448" as="targetPoint" />
          </mxGeometry>
        </mxCell>
        <mxCell id="XTZE2WU_NWd3jXHMlwdr-14" value="" style="endArrow=none;html=1;rounded=0;entryX=1;entryY=0.5;entryDx=0;entryDy=0;entryPerimeter=0;exitX=0;exitY=0.5;exitDx=0;exitDy=0;exitPerimeter=0;strokeColor=#000099;" edge="1" parent="1" source="XTZE2WU_NWd3jXHMlwdr-21" target="XTZE2WU_NWd3jXHMlwdr-4">
          <mxGeometry width="50" height="50" relative="1" as="geometry">
            <mxPoint x="385.99999999999955" y="-96" as="sourcePoint" />
            <mxPoint x="141" y="-378" as="targetPoint" />
          </mxGeometry>
        </mxCell>
        <mxCell id="XTZE2WU_NWd3jXHMlwdr-15" value="" style="endArrow=none;html=1;rounded=0;fontSize=8;strokeColor=#000099;" edge="1" parent="1" source="XTZE2WU_NWd3jXHMlwdr-20" target="XTZE2WU_NWd3jXHMlwdr-7">
          <mxGeometry width="50" height="50" relative="1" as="geometry">
            <mxPoint x="44.5" y="148" as="sourcePoint" />
            <mxPoint x="289" y="162" as="targetPoint" />
          </mxGeometry>
        </mxCell>
        <mxCell id="XTZE2WU_NWd3jXHMlwdr-16" value="" style="endArrow=none;html=1;rounded=0;fontSize=8;strokeColor=#000099;entryX=0.5;entryY=1;entryDx=0;entryDy=0;entryPerimeter=0;" edge="1" parent="1" source="XTZE2WU_NWd3jXHMlwdr-20" target="XTZE2WU_NWd3jXHMlwdr-8">
          <mxGeometry width="50" height="50" relative="1" as="geometry">
            <mxPoint x="307" y="155" as="sourcePoint" />
            <mxPoint x="226" y="16" as="targetPoint" />
          </mxGeometry>
        </mxCell>
        <mxCell id="XTZE2WU_NWd3jXHMlwdr-17" value="CAD_Slave" style="sketch=0;outlineConnect=0;fontColor=#232F3E;gradientColor=none;fillColor=#006600;strokeColor=none;dashed=0;verticalLabelPosition=bottom;verticalAlign=top;align=center;html=1;fontSize=12;fontStyle=0;aspect=fixed;pointerEvents=1;shape=mxgraph.aws4.traditional_server;" vertex="1" parent="1">
          <mxGeometry x="75" y="167" width="45" height="78" as="geometry" />
        </mxCell>
        <mxCell id="XTZE2WU_NWd3jXHMlwdr-18" value="" style="endArrow=none;html=1;rounded=0;fontSize=8;strokeColor=#006600;" edge="1" parent="1" source="XTZE2WU_NWd3jXHMlwdr-17" target="XTZE2WU_NWd3jXHMlwdr-7">
          <mxGeometry width="50" height="50" relative="1" as="geometry">
            <mxPoint x="391" y="292" as="sourcePoint" />
            <mxPoint x="519" y="143" as="targetPoint" />
          </mxGeometry>
        </mxCell>
        <mxCell id="XTZE2WU_NWd3jXHMlwdr-19" value="" style="endArrow=none;html=1;rounded=0;fontSize=8;strokeColor=#006600;" edge="1" parent="1" source="XTZE2WU_NWd3jXHMlwdr-17" target="XTZE2WU_NWd3jXHMlwdr-8">
          <mxGeometry width="50" height="50" relative="1" as="geometry">
            <mxPoint x="310" y="242" as="sourcePoint" />
            <mxPoint x="222" y="143" as="targetPoint" />
          </mxGeometry>
        </mxCell>
        <mxCell id="XTZE2WU_NWd3jXHMlwdr-20" value="ASU_Master" style="sketch=0;outlineConnect=0;fontColor=#232F3E;gradientColor=none;fillColor=#0000CC;strokeColor=none;dashed=0;verticalLabelPosition=bottom;verticalAlign=top;align=center;html=1;fontSize=12;fontStyle=0;aspect=fixed;pointerEvents=1;shape=mxgraph.aws4.traditional_server;" vertex="1" parent="1">
          <mxGeometry x="489" y="175" width="45" height="78" as="geometry" />
        </mxCell>
        <mxCell id="XTZE2WU_NWd3jXHMlwdr-21" value="spine-1-1" style="shape=mxgraph.cisco.routers.router;sketch=0;html=1;pointerEvents=1;dashed=0;fillColor=#036897;strokeColor=#ffffff;strokeWidth=2;verticalLabelPosition=bottom;verticalAlign=top;align=center;outlineConnect=0;fontStyle=1;fontSize=13;" vertex="1" parent="1">
          <mxGeometry x="992" y="-257" width="78" height="53" as="geometry" />
        </mxCell>
        <mxCell id="XTZE2WU_NWd3jXHMlwdr-22" value="spine-1-2" style="shape=mxgraph.cisco.routers.router;sketch=0;html=1;pointerEvents=1;dashed=0;fillColor=#036897;strokeColor=#ffffff;strokeWidth=2;verticalLabelPosition=bottom;verticalAlign=top;align=center;outlineConnect=0;fontStyle=1;fontSize=13;" vertex="1" parent="1">
          <mxGeometry x="1664" y="-340" width="78" height="53" as="geometry" />
        </mxCell>
        <mxCell id="XTZE2WU_NWd3jXHMlwdr-23" style="edgeStyle=orthogonalEdgeStyle;rounded=0;orthogonalLoop=1;jettySize=auto;html=1;endArrow=none;endFill=0;shape=link;" edge="1" parent="1" source="XTZE2WU_NWd3jXHMlwdr-24" target="XTZE2WU_NWd3jXHMlwdr-25">
          <mxGeometry relative="1" as="geometry" />
        </mxCell>
        <mxCell id="XTZE2WU_NWd3jXHMlwdr-24" value="leaf-1-1" style="shape=mxgraph.cisco.routers.router;sketch=0;html=1;pointerEvents=1;dashed=0;fillColor=#036897;strokeColor=#ffffff;strokeWidth=2;verticalLabelPosition=bottom;verticalAlign=top;align=center;outlineConnect=0;fontStyle=1;fontSize=13;" vertex="1" parent="1">
          <mxGeometry x="770" y="-47" width="78" height="53" as="geometry" />
        </mxCell>
        <mxCell id="XTZE2WU_NWd3jXHMlwdr-25" value="leaf-1-2" style="shape=mxgraph.cisco.routers.router;sketch=0;html=1;pointerEvents=1;dashed=0;fillColor=#036897;strokeColor=#ffffff;strokeWidth=2;verticalLabelPosition=bottom;verticalAlign=top;align=center;outlineConnect=0;fontStyle=1;fontSize=13;" vertex="1" parent="1">
          <mxGeometry x="1185" y="-47" width="78" height="53" as="geometry" />
        </mxCell>
        <mxCell id="XTZE2WU_NWd3jXHMlwdr-26" value="" style="endArrow=none;html=1;rounded=0;fontSize=8;strokeColor=#000099;entryX=0.5;entryY=1;entryDx=0;entryDy=0;entryPerimeter=0;" edge="1" parent="1" source="XTZE2WU_NWd3jXHMlwdr-31" target="XTZE2WU_NWd3jXHMlwdr-41">
          <mxGeometry width="50" height="50" relative="1" as="geometry">
            <mxPoint x="969.5" y="157" as="sourcePoint" />
            <mxPoint x="979" y="-25" as="targetPoint" />
          </mxGeometry>
        </mxCell>
        <mxCell id="XTZE2WU_NWd3jXHMlwdr-27" value="" style="endArrow=none;html=1;rounded=0;fontSize=8;strokeColor=#000099;entryX=0.12;entryY=0.9;entryDx=0;entryDy=0;entryPerimeter=0;" edge="1" parent="1" source="XTZE2WU_NWd3jXHMlwdr-31" target="XTZE2WU_NWd3jXHMlwdr-42">
          <mxGeometry width="50" height="50" relative="1" as="geometry">
            <mxPoint x="1118" y="160" as="sourcePoint" />
            <mxPoint x="1037" y="21" as="targetPoint" />
          </mxGeometry>
        </mxCell>
        <mxCell id="XTZE2WU_NWd3jXHMlwdr-28" value="CAD_Master" style="sketch=0;outlineConnect=0;fontColor=#232F3E;gradientColor=none;fillColor=#006600;strokeColor=none;dashed=0;verticalLabelPosition=bottom;verticalAlign=top;align=center;html=1;fontSize=12;fontStyle=0;aspect=fixed;pointerEvents=1;shape=mxgraph.aws4.traditional_server;" vertex="1" parent="1">
          <mxGeometry x="1253" y="169" width="45" height="78" as="geometry" />
        </mxCell>
        <mxCell id="XTZE2WU_NWd3jXHMlwdr-29" value="" style="endArrow=none;html=1;rounded=0;fontSize=8;strokeColor=#006600;entryX=1;entryY=0.5;entryDx=0;entryDy=0;entryPerimeter=0;" edge="1" parent="1" source="XTZE2WU_NWd3jXHMlwdr-28" target="XTZE2WU_NWd3jXHMlwdr-25">
          <mxGeometry width="50" height="50" relative="1" as="geometry">
            <mxPoint x="1102" y="294" as="sourcePoint" />
            <mxPoint x="1230" y="145" as="targetPoint" />
          </mxGeometry>
        </mxCell>
        <mxCell id="XTZE2WU_NWd3jXHMlwdr-30" value="" style="endArrow=none;html=1;rounded=0;fontSize=8;strokeColor=#006600;entryX=0.88;entryY=0.9;entryDx=0;entryDy=0;entryPerimeter=0;" edge="1" parent="1" source="XTZE2WU_NWd3jXHMlwdr-28" target="XTZE2WU_NWd3jXHMlwdr-24">
          <mxGeometry width="50" height="50" relative="1" as="geometry">
            <mxPoint x="905" y="243" as="sourcePoint" />
            <mxPoint x="817" y="144" as="targetPoint" />
          </mxGeometry>
        </mxCell>
        <mxCell id="XTZE2WU_NWd3jXHMlwdr-31" value="ASU_Slave" style="sketch=0;outlineConnect=0;fontColor=#232F3E;gradientColor=none;fillColor=#0000CC;strokeColor=none;dashed=0;verticalLabelPosition=bottom;verticalAlign=top;align=center;html=1;fontSize=12;fontStyle=0;aspect=fixed;pointerEvents=1;shape=mxgraph.aws4.traditional_server;" vertex="1" parent="1">
          <mxGeometry x="1748" y="195" width="45" height="78" as="geometry" />
        </mxCell>
        <mxCell id="XTZE2WU_NWd3jXHMlwdr-32" value="" style="endArrow=none;html=1;rounded=0;entryX=0.12;entryY=0.9;entryDx=0;entryDy=0;entryPerimeter=0;fontSize=8;strokeColor=#000099;" edge="1" parent="1" source="XTZE2WU_NWd3jXHMlwdr-24" target="XTZE2WU_NWd3jXHMlwdr-21">
          <mxGeometry width="50" height="50" relative="1" as="geometry">
            <mxPoint x="447" y="166" as="sourcePoint" />
            <mxPoint x="456" y="-196" as="targetPoint" />
          </mxGeometry>
        </mxCell>
        <mxCell id="XTZE2WU_NWd3jXHMlwdr-33" value="CRM_Master" style="sketch=0;outlineConnect=0;fontColor=#232F3E;gradientColor=none;fillColor=#994C00;strokeColor=none;dashed=0;verticalLabelPosition=bottom;verticalAlign=top;align=center;html=1;fontSize=12;fontStyle=0;aspect=fixed;pointerEvents=1;shape=mxgraph.aws4.traditional_server;" vertex="1" parent="1">
          <mxGeometry x="753" y="160" width="45" height="78" as="geometry" />
        </mxCell>
        <mxCell id="XTZE2WU_NWd3jXHMlwdr-34" value="" style="endArrow=none;html=1;rounded=0;fontSize=8;strokeColor=#994C00;entryX=0.12;entryY=0.9;entryDx=0;entryDy=0;entryPerimeter=0;" edge="1" parent="1" source="XTZE2WU_NWd3jXHMlwdr-33" target="XTZE2WU_NWd3jXHMlwdr-24">
          <mxGeometry width="50" height="50" relative="1" as="geometry">
            <mxPoint x="882" y="172" as="sourcePoint" />
            <mxPoint x="916" y="54" as="targetPoint" />
          </mxGeometry>
        </mxCell>
        <mxCell id="XTZE2WU_NWd3jXHMlwdr-35" value="" style="endArrow=none;html=1;rounded=0;fontSize=8;strokeColor=#994C00;entryX=0.12;entryY=0.9;entryDx=0;entryDy=0;entryPerimeter=0;" edge="1" parent="1" source="XTZE2WU_NWd3jXHMlwdr-33" target="XTZE2WU_NWd3jXHMlwdr-25">
          <mxGeometry width="50" height="50" relative="1" as="geometry">
            <mxPoint x="913" y="189" as="sourcePoint" />
            <mxPoint x="789" y="11" as="targetPoint" />
          </mxGeometry>
        </mxCell>
        <mxCell id="XTZE2WU_NWd3jXHMlwdr-36" value="" style="endArrow=none;html=1;rounded=0;fontSize=8;strokeColor=#000099;entryX=0.5;entryY=1;entryDx=0;entryDy=0;entryPerimeter=0;" edge="1" parent="1" source="XTZE2WU_NWd3jXHMlwdr-25" target="XTZE2WU_NWd3jXHMlwdr-21">
          <mxGeometry width="50" height="50" relative="1" as="geometry">
            <mxPoint x="819" y="-37" as="sourcePoint" />
            <mxPoint x="817" y="-229" as="targetPoint" />
          </mxGeometry>
        </mxCell>
        <mxCell id="XTZE2WU_NWd3jXHMlwdr-37" value="1С_Master" style="sketch=0;outlineConnect=0;fontColor=#232F3E;gradientColor=none;fillColor=#994C00;strokeColor=none;dashed=0;verticalLabelPosition=bottom;verticalAlign=top;align=center;html=1;fontSize=12;fontStyle=0;aspect=fixed;pointerEvents=1;shape=mxgraph.aws4.traditional_server;" vertex="1" parent="1">
          <mxGeometry x="1002" y="167" width="45" height="78" as="geometry" />
        </mxCell>
        <mxCell id="XTZE2WU_NWd3jXHMlwdr-38" value="" style="endArrow=none;html=1;rounded=0;fontSize=8;strokeColor=#994C00;entryX=0.5;entryY=1;entryDx=0;entryDy=0;entryPerimeter=0;" edge="1" parent="1" source="XTZE2WU_NWd3jXHMlwdr-37" target="XTZE2WU_NWd3jXHMlwdr-24">
          <mxGeometry width="50" height="50" relative="1" as="geometry">
            <mxPoint x="1007" y="177" as="sourcePoint" />
            <mxPoint x="823.0000000000005" y="-27" as="targetPoint" />
          </mxGeometry>
        </mxCell>
        <mxCell id="XTZE2WU_NWd3jXHMlwdr-39" value="" style="endArrow=none;html=1;rounded=0;fontSize=8;strokeColor=#994C00;" edge="1" parent="1" source="XTZE2WU_NWd3jXHMlwdr-37" target="XTZE2WU_NWd3jXHMlwdr-25">
          <mxGeometry width="50" height="50" relative="1" as="geometry">
            <mxPoint x="1038" y="194" as="sourcePoint" />
            <mxPoint x="1038.7914285714287" y="-27" as="targetPoint" />
          </mxGeometry>
        </mxCell>
        <mxCell id="XTZE2WU_NWd3jXHMlwdr-40" style="edgeStyle=orthogonalEdgeStyle;rounded=0;orthogonalLoop=1;jettySize=auto;html=1;endArrow=none;endFill=0;shape=link;" edge="1" parent="1" source="XTZE2WU_NWd3jXHMlwdr-41" target="XTZE2WU_NWd3jXHMlwdr-42">
          <mxGeometry relative="1" as="geometry" />
        </mxCell>
        <mxCell id="XTZE2WU_NWd3jXHMlwdr-41" value="leaf-1-3" style="shape=mxgraph.cisco.routers.router;sketch=0;html=1;pointerEvents=1;dashed=0;fillColor=#036897;strokeColor=#ffffff;strokeWidth=2;verticalLabelPosition=bottom;verticalAlign=top;align=center;outlineConnect=0;fontStyle=1;fontSize=13;" vertex="1" parent="1">
          <mxGeometry x="1536" y="-42" width="78" height="53" as="geometry" />
        </mxCell>
        <mxCell id="XTZE2WU_NWd3jXHMlwdr-42" value="leaf-1-4" style="shape=mxgraph.cisco.routers.router;sketch=0;html=1;pointerEvents=1;dashed=0;fillColor=#036897;strokeColor=#ffffff;strokeWidth=2;verticalLabelPosition=bottom;verticalAlign=top;align=center;outlineConnect=0;fontStyle=1;fontSize=13;" vertex="1" parent="1">
          <mxGeometry x="1932" y="-41" width="78" height="53" as="geometry" />
        </mxCell>
        <mxCell id="XTZE2WU_NWd3jXHMlwdr-43" value="CRM_Slave" style="sketch=0;outlineConnect=0;fontColor=#232F3E;gradientColor=none;fillColor=#994C00;strokeColor=none;dashed=0;verticalLabelPosition=bottom;verticalAlign=top;align=center;html=1;fontSize=12;fontStyle=0;aspect=fixed;pointerEvents=1;shape=mxgraph.aws4.traditional_server;" vertex="1" parent="1">
          <mxGeometry x="1525" y="176" width="45" height="78" as="geometry" />
        </mxCell>
        <mxCell id="XTZE2WU_NWd3jXHMlwdr-44" value="" style="endArrow=none;html=1;rounded=0;fontSize=8;strokeColor=#994C00;entryX=0.12;entryY=0.9;entryDx=0;entryDy=0;entryPerimeter=0;" edge="1" parent="1" source="XTZE2WU_NWd3jXHMlwdr-43" target="XTZE2WU_NWd3jXHMlwdr-41">
          <mxGeometry width="50" height="50" relative="1" as="geometry">
            <mxPoint x="1648" y="177" as="sourcePoint" />
            <mxPoint x="1682" y="59" as="targetPoint" />
          </mxGeometry>
        </mxCell>
        <mxCell id="XTZE2WU_NWd3jXHMlwdr-45" value="" style="endArrow=none;html=1;rounded=0;fontSize=8;strokeColor=#994C00;entryX=0.88;entryY=0.9;entryDx=0;entryDy=0;entryPerimeter=0;" edge="1" parent="1" source="XTZE2WU_NWd3jXHMlwdr-43" target="XTZE2WU_NWd3jXHMlwdr-42">
          <mxGeometry width="50" height="50" relative="1" as="geometry">
            <mxPoint x="1679" y="194" as="sourcePoint" />
            <mxPoint x="1555" y="16" as="targetPoint" />
          </mxGeometry>
        </mxCell>
        <mxCell id="XTZE2WU_NWd3jXHMlwdr-46" value="1С_Slave" style="sketch=0;outlineConnect=0;fontColor=#232F3E;gradientColor=none;fillColor=#994C00;strokeColor=none;dashed=0;verticalLabelPosition=bottom;verticalAlign=top;align=center;html=1;fontSize=12;fontStyle=0;aspect=fixed;pointerEvents=1;shape=mxgraph.aws4.traditional_server;" vertex="1" parent="1">
          <mxGeometry x="1956" y="183" width="45" height="78" as="geometry" />
        </mxCell>
        <mxCell id="XTZE2WU_NWd3jXHMlwdr-47" value="" style="endArrow=none;html=1;rounded=0;fontSize=8;strokeColor=#994C00;entryX=0.88;entryY=0.9;entryDx=0;entryDy=0;entryPerimeter=0;" edge="1" parent="1" source="XTZE2WU_NWd3jXHMlwdr-46" target="XTZE2WU_NWd3jXHMlwdr-41">
          <mxGeometry width="50" height="50" relative="1" as="geometry">
            <mxPoint x="1773" y="182" as="sourcePoint" />
            <mxPoint x="1589.0000000000005" y="-22" as="targetPoint" />
          </mxGeometry>
        </mxCell>
        <mxCell id="XTZE2WU_NWd3jXHMlwdr-48" value="" style="endArrow=none;html=1;rounded=0;fontSize=8;strokeColor=#994C00;" edge="1" parent="1" source="XTZE2WU_NWd3jXHMlwdr-46" target="XTZE2WU_NWd3jXHMlwdr-42">
          <mxGeometry width="50" height="50" relative="1" as="geometry">
            <mxPoint x="1978" y="200" as="sourcePoint" />
            <mxPoint x="1978.7914285714287" y="-21" as="targetPoint" />
          </mxGeometry>
        </mxCell>
        <mxCell id="XTZE2WU_NWd3jXHMlwdr-49" value="border-1-1" style="shape=mxgraph.cisco.routers.router;sketch=0;html=1;pointerEvents=1;dashed=0;fillColor=#036897;strokeColor=#ffffff;strokeWidth=2;verticalLabelPosition=bottom;verticalAlign=top;align=center;outlineConnect=0;fontStyle=1;fontSize=13;" vertex="1" parent="1">
          <mxGeometry x="1088" y="-533" width="78" height="53" as="geometry" />
        </mxCell>
        <mxCell id="XTZE2WU_NWd3jXHMlwdr-50" value="border-1-2" style="shape=mxgraph.cisco.routers.router;sketch=0;html=1;pointerEvents=1;dashed=0;fillColor=#036897;strokeColor=#ffffff;strokeWidth=2;verticalLabelPosition=bottom;verticalAlign=top;align=center;outlineConnect=0;fontStyle=1;fontSize=13;" vertex="1" parent="1">
          <mxGeometry x="1469" y="-532" width="78" height="53" as="geometry" />
        </mxCell>
        <mxCell id="XTZE2WU_NWd3jXHMlwdr-51" value="Int-Router-1" style="shape=mxgraph.cisco.routers.router;sketch=0;html=1;pointerEvents=1;dashed=0;fillColor=#036897;strokeColor=#ffffff;strokeWidth=2;verticalLabelPosition=bottom;verticalAlign=top;align=center;outlineConnect=0;fontStyle=1;fontSize=13;" vertex="1" parent="1">
          <mxGeometry x="1092" y="-709" width="78" height="53" as="geometry" />
        </mxCell>
        <mxCell id="XTZE2WU_NWd3jXHMlwdr-52" style="edgeStyle=orthogonalEdgeStyle;rounded=0;orthogonalLoop=1;jettySize=auto;html=1;exitX=1;exitY=0.5;exitDx=0;exitDy=0;exitPerimeter=0;endArrow=none;endFill=0;" edge="1" parent="1" source="XTZE2WU_NWd3jXHMlwdr-53" target="XTZE2WU_NWd3jXHMlwdr-66">
          <mxGeometry relative="1" as="geometry" />
        </mxCell>
        <mxCell id="XTZE2WU_NWd3jXHMlwdr-53" value="Ext-Router-1" style="shape=mxgraph.cisco.routers.router;sketch=0;html=1;pointerEvents=1;dashed=0;fillColor=#036897;strokeColor=#ffffff;strokeWidth=2;verticalLabelPosition=bottom;verticalAlign=top;align=center;outlineConnect=0;fontStyle=1;fontSize=13;" vertex="1" parent="1">
          <mxGeometry x="1468" y="-701" width="78" height="53" as="geometry" />
        </mxCell>
        <mxCell id="XTZE2WU_NWd3jXHMlwdr-54" value="" style="endArrow=none;html=1;rounded=0;fontSize=8;strokeColor=#000099;" edge="1" parent="1" source="XTZE2WU_NWd3jXHMlwdr-49" target="XTZE2WU_NWd3jXHMlwdr-51">
          <mxGeometry width="50" height="50" relative="1" as="geometry">
            <mxPoint x="730" y="-225" as="sourcePoint" />
            <mxPoint x="559" y="-422" as="targetPoint" />
          </mxGeometry>
        </mxCell>
        <mxCell id="XTZE2WU_NWd3jXHMlwdr-55" value="" style="endArrow=none;html=1;rounded=0;entryX=0.88;entryY=0.9;entryDx=0;entryDy=0;entryPerimeter=0;fontSize=8;strokeColor=#000099;exitX=0.12;exitY=0.1;exitDx=0;exitDy=0;exitPerimeter=0;" edge="1" parent="1" source="XTZE2WU_NWd3jXHMlwdr-50" target="XTZE2WU_NWd3jXHMlwdr-51">
          <mxGeometry width="50" height="50" relative="1" as="geometry">
            <mxPoint x="1195" y="-551" as="sourcePoint" />
            <mxPoint x="1186" y="-706" as="targetPoint" />
          </mxGeometry>
        </mxCell>
        <mxCell id="XTZE2WU_NWd3jXHMlwdr-56" value="" style="endArrow=none;html=1;rounded=0;entryX=0;entryY=0.5;entryDx=0;entryDy=0;entryPerimeter=0;fontSize=8;strokeColor=#000099;exitX=0.88;exitY=0.1;exitDx=0;exitDy=0;exitPerimeter=0;" edge="1" parent="1" source="XTZE2WU_NWd3jXHMlwdr-49" target="XTZE2WU_NWd3jXHMlwdr-53">
          <mxGeometry width="50" height="50" relative="1" as="geometry">
            <mxPoint x="1195" y="-551" as="sourcePoint" />
            <mxPoint x="1186" y="-706" as="targetPoint" />
          </mxGeometry>
        </mxCell>
        <mxCell id="XTZE2WU_NWd3jXHMlwdr-57" value="" style="endArrow=none;html=1;rounded=0;fontSize=8;strokeColor=#000099;" edge="1" parent="1" source="XTZE2WU_NWd3jXHMlwdr-50" target="XTZE2WU_NWd3jXHMlwdr-53">
          <mxGeometry width="50" height="50" relative="1" as="geometry">
            <mxPoint x="1228" y="-616" as="sourcePoint" />
            <mxPoint x="1219" y="-771" as="targetPoint" />
          </mxGeometry>
        </mxCell>
        <mxCell id="XTZE2WU_NWd3jXHMlwdr-58" value="" style="endArrow=none;html=1;rounded=0;entryX=0.88;entryY=0.9;entryDx=0;entryDy=0;entryPerimeter=0;fontSize=8;strokeColor=#000099;exitX=0;exitY=0.5;exitDx=0;exitDy=0;exitPerimeter=0;" edge="1" parent="1" source="XTZE2WU_NWd3jXHMlwdr-41" target="XTZE2WU_NWd3jXHMlwdr-21">
          <mxGeometry width="50" height="50" relative="1" as="geometry">
            <mxPoint x="1136" y="-37" as="sourcePoint" />
            <mxPoint x="1041" y="-261" as="targetPoint" />
          </mxGeometry>
        </mxCell>
        <mxCell id="XTZE2WU_NWd3jXHMlwdr-59" value="" style="endArrow=none;html=1;rounded=0;entryX=0.12;entryY=0.9;entryDx=0;entryDy=0;entryPerimeter=0;fontSize=11;strokeColor=#990099;exitX=0.88;exitY=0.1;exitDx=0;exitDy=0;exitPerimeter=0;" edge="1" parent="1" source="XTZE2WU_NWd3jXHMlwdr-24" target="XTZE2WU_NWd3jXHMlwdr-22">
          <mxGeometry width="50" height="50" relative="1" as="geometry">
            <mxPoint x="930" y="-37" as="sourcePoint" />
            <mxPoint x="974" y="-261" as="targetPoint" />
          </mxGeometry>
        </mxCell>
        <mxCell id="XTZE2WU_NWd3jXHMlwdr-60" value="" style="endArrow=none;html=1;rounded=0;entryX=0.5;entryY=1;entryDx=0;entryDy=0;entryPerimeter=0;fontSize=11;strokeColor=#990099;exitX=0.5;exitY=0;exitDx=0;exitDy=0;exitPerimeter=0;" edge="1" parent="1" source="XTZE2WU_NWd3jXHMlwdr-41" target="XTZE2WU_NWd3jXHMlwdr-22">
          <mxGeometry width="50" height="50" relative="1" as="geometry">
            <mxPoint x="1065" y="-28" as="sourcePoint" />
            <mxPoint x="1326" y="-409" as="targetPoint" />
          </mxGeometry>
        </mxCell>
        <mxCell id="XTZE2WU_NWd3jXHMlwdr-61" value="" style="endArrow=none;html=1;rounded=0;entryX=0.88;entryY=0.9;entryDx=0;entryDy=0;entryPerimeter=0;fontSize=11;strokeColor=#990099;exitX=0.5;exitY=0;exitDx=0;exitDy=0;exitPerimeter=0;" edge="1" parent="1" source="XTZE2WU_NWd3jXHMlwdr-42" target="XTZE2WU_NWd3jXHMlwdr-22">
          <mxGeometry width="50" height="50" relative="1" as="geometry">
            <mxPoint x="1555" y="-27" as="sourcePoint" />
            <mxPoint x="1356" y="-404" as="targetPoint" />
          </mxGeometry>
        </mxCell>
        <mxCell id="XTZE2WU_NWd3jXHMlwdr-62" value="" style="endArrow=none;html=1;rounded=0;entryX=0.88;entryY=0.1;entryDx=0;entryDy=0;entryPerimeter=0;fontSize=8;strokeColor=#000099;exitX=0.12;exitY=0.9;exitDx=0;exitDy=0;exitPerimeter=0;" edge="1" parent="1" source="XTZE2WU_NWd3jXHMlwdr-50" target="XTZE2WU_NWd3jXHMlwdr-21">
          <mxGeometry width="50" height="50" relative="1" as="geometry">
            <mxPoint x="1667" y="-31" as="sourcePoint" />
            <mxPoint x="1276" y="-413" as="targetPoint" />
          </mxGeometry>
        </mxCell>
        <mxCell id="XTZE2WU_NWd3jXHMlwdr-63" value="" style="endArrow=none;html=1;rounded=0;entryX=0.5;entryY=0;entryDx=0;entryDy=0;entryPerimeter=0;fontSize=8;strokeColor=#000099;" edge="1" parent="1" source="XTZE2WU_NWd3jXHMlwdr-49" target="XTZE2WU_NWd3jXHMlwdr-21">
          <mxGeometry width="50" height="50" relative="1" as="geometry">
            <mxPoint x="1787" y="-152" as="sourcePoint" />
            <mxPoint x="988" y="-248" as="targetPoint" />
          </mxGeometry>
        </mxCell>
        <mxCell id="XTZE2WU_NWd3jXHMlwdr-64" value="" style="endArrow=none;html=1;rounded=0;fontSize=11;strokeColor=#990099;exitX=0.88;exitY=0.9;exitDx=0;exitDy=0;exitPerimeter=0;entryX=0;entryY=0.5;entryDx=0;entryDy=0;entryPerimeter=0;" edge="1" parent="1" source="XTZE2WU_NWd3jXHMlwdr-49" target="XTZE2WU_NWd3jXHMlwdr-22">
          <mxGeometry width="50" height="50" relative="1" as="geometry">
            <mxPoint x="1667" y="-31" as="sourcePoint" />
            <mxPoint x="1339" y="-451" as="targetPoint" />
          </mxGeometry>
        </mxCell>
        <mxCell id="XTZE2WU_NWd3jXHMlwdr-65" value="" style="endArrow=none;html=1;rounded=0;fontSize=11;strokeColor=#990099;exitX=0.88;exitY=0.9;exitDx=0;exitDy=0;exitPerimeter=0;entryX=0.12;entryY=0.1;entryDx=0;entryDy=0;entryPerimeter=0;" edge="1" parent="1" source="XTZE2WU_NWd3jXHMlwdr-50" target="XTZE2WU_NWd3jXHMlwdr-22">
          <mxGeometry width="50" height="50" relative="1" as="geometry">
            <mxPoint x="1796" y="-331" as="sourcePoint" />
            <mxPoint x="1285" y="-434" as="targetPoint" />
          </mxGeometry>
        </mxCell>
        <mxCell id="XTZE2WU_NWd3jXHMlwdr-66" value="Internet" style="ellipse;shape=cloud;whiteSpace=wrap;html=1;" vertex="1" parent="1">
          <mxGeometry x="1595" y="-714" width="120" height="80" as="geometry" />
        </mxCell>
        <mxCell id="XTZE2WU_NWd3jXHMlwdr-67" value="VNI 10000&lt;br&gt;VLAN 1000" style="rounded=1;whiteSpace=wrap;html=1;absoluteArcSize=1;arcSize=14;strokeWidth=2;fillColor=#f8cecc;strokeColor=#b85450;" vertex="1" parent="1">
          <mxGeometry x="886" y="-58" width="80" height="38" as="geometry" />
        </mxCell>
        <mxCell id="XTZE2WU_NWd3jXHMlwdr-68" value="VNI 10101&lt;br&gt;&lt;br&gt;VLAN 101" style="rounded=1;whiteSpace=wrap;html=1;absoluteArcSize=1;arcSize=14;strokeWidth=2;fillColor=#f8cecc;strokeColor=#b85450;" vertex="1" parent="1">
          <mxGeometry x="884" y="9" width="38" height="83" as="geometry" />
        </mxCell>
        <mxCell id="XTZE2WU_NWd3jXHMlwdr-69" value="VNI 10201&lt;br&gt;&lt;br&gt;VLAN 102" style="rounded=1;whiteSpace=wrap;html=1;absoluteArcSize=1;arcSize=14;strokeWidth=2;fillColor=#f8cecc;strokeColor=#b85450;" vertex="1" parent="1">
          <mxGeometry x="926" y="10" width="36" height="83" as="geometry" />
        </mxCell>
        <mxCell id="XTZE2WU_NWd3jXHMlwdr-70" value="Vrf_CAD" style="rounded=1;whiteSpace=wrap;html=1;absoluteArcSize=1;arcSize=14;strokeWidth=2;fillColor=#d5e8d4;strokeColor=#82b366;" vertex="1" parent="1">
          <mxGeometry x="975" y="-17" width="78" height="26" as="geometry" />
        </mxCell>
        <mxCell id="XTZE2WU_NWd3jXHMlwdr-71" value="VNI 20000&lt;br&gt;VLAN 2000" style="rounded=1;whiteSpace=wrap;html=1;absoluteArcSize=1;arcSize=14;strokeWidth=2;fillColor=#d5e8d4;strokeColor=#82b366;" vertex="1" parent="1">
          <mxGeometry x="975" y="-57" width="80" height="38" as="geometry" />
        </mxCell>
        <mxCell id="XTZE2WU_NWd3jXHMlwdr-72" value="VNI 20101&lt;br&gt;&lt;br&gt;VLAN 201" style="rounded=1;whiteSpace=wrap;html=1;absoluteArcSize=1;arcSize=14;strokeWidth=2;fillColor=#d5e8d4;strokeColor=#82b366;" vertex="1" parent="1">
          <mxGeometry x="993" y="10" width="38" height="83" as="geometry" />
        </mxCell>
        <mxCell id="XTZE2WU_NWd3jXHMlwdr-73" value="Vrf_ASU" style="rounded=1;whiteSpace=wrap;html=1;absoluteArcSize=1;arcSize=14;strokeWidth=2;fillColor=#dae8fc;strokeColor=#6c8ebf;" vertex="1" parent="1">
          <mxGeometry x="1062" y="-17" width="78" height="26" as="geometry" />
        </mxCell>
        <mxCell id="XTZE2WU_NWd3jXHMlwdr-74" value="VNI 30000&lt;br&gt;VLAN 3000" style="rounded=1;whiteSpace=wrap;html=1;absoluteArcSize=1;arcSize=14;strokeWidth=2;fillColor=#dae8fc;strokeColor=#6c8ebf;" vertex="1" parent="1">
          <mxGeometry x="1062" y="-57" width="80" height="38" as="geometry" />
        </mxCell>
        <mxCell id="XTZE2WU_NWd3jXHMlwdr-75" value="VNI 30101&lt;br&gt;&lt;br&gt;VLAN 301" style="rounded=1;whiteSpace=wrap;html=1;absoluteArcSize=1;arcSize=14;strokeWidth=2;fillColor=#dae8fc;strokeColor=#6c8ebf;" vertex="1" parent="1">
          <mxGeometry x="1080" y="10" width="38" height="83" as="geometry" />
        </mxCell>
        <mxCell id="XTZE2WU_NWd3jXHMlwdr-76" value="Vrf_ADM" style="rounded=1;whiteSpace=wrap;html=1;absoluteArcSize=1;arcSize=14;strokeWidth=2;fillColor=#f8cecc;strokeColor=#b85450;" vertex="1" parent="1">
          <mxGeometry x="1646" y="-16" width="78" height="26" as="geometry" />
        </mxCell>
        <mxCell id="XTZE2WU_NWd3jXHMlwdr-77" value="VNI 10000&lt;br&gt;VLAN 1000" style="rounded=1;whiteSpace=wrap;html=1;absoluteArcSize=1;arcSize=14;strokeWidth=2;fillColor=#f8cecc;strokeColor=#b85450;" vertex="1" parent="1">
          <mxGeometry x="1646" y="-56" width="80" height="38" as="geometry" />
        </mxCell>
        <mxCell id="XTZE2WU_NWd3jXHMlwdr-78" value="VNI 10101&lt;br&gt;&lt;br&gt;VLAN 101" style="rounded=1;whiteSpace=wrap;html=1;absoluteArcSize=1;arcSize=14;strokeWidth=2;fillColor=#f8cecc;strokeColor=#b85450;" vertex="1" parent="1">
          <mxGeometry x="1644" y="11" width="38" height="83" as="geometry" />
        </mxCell>
        <mxCell id="XTZE2WU_NWd3jXHMlwdr-79" value="VNI 10201&lt;br&gt;&lt;br&gt;VLAN 102" style="rounded=1;whiteSpace=wrap;html=1;absoluteArcSize=1;arcSize=14;strokeWidth=2;fillColor=#f8cecc;strokeColor=#b85450;" vertex="1" parent="1">
          <mxGeometry x="1686" y="12" width="36" height="83" as="geometry" />
        </mxCell>
        <mxCell id="XTZE2WU_NWd3jXHMlwdr-80" value="Vrf_CAD" style="rounded=1;whiteSpace=wrap;html=1;absoluteArcSize=1;arcSize=14;strokeWidth=2;fillColor=#d5e8d4;strokeColor=#82b366;" vertex="1" parent="1">
          <mxGeometry x="1735" y="-15" width="78" height="26" as="geometry" />
        </mxCell>
        <mxCell id="XTZE2WU_NWd3jXHMlwdr-81" value="VNI 20000&lt;br&gt;VLAN 2000" style="rounded=1;whiteSpace=wrap;html=1;absoluteArcSize=1;arcSize=14;strokeWidth=2;fillColor=#d5e8d4;strokeColor=#82b366;" vertex="1" parent="1">
          <mxGeometry x="1735" y="-55" width="80" height="38" as="geometry" />
        </mxCell>
        <mxCell id="XTZE2WU_NWd3jXHMlwdr-82" value="VNI 20101&lt;br&gt;&lt;br&gt;VLAN 201" style="rounded=1;whiteSpace=wrap;html=1;absoluteArcSize=1;arcSize=14;strokeWidth=2;fillColor=#d5e8d4;strokeColor=#82b366;" vertex="1" parent="1">
          <mxGeometry x="1753" y="12" width="38" height="83" as="geometry" />
        </mxCell>
        <mxCell id="XTZE2WU_NWd3jXHMlwdr-83" value="Vrf_ASU" style="rounded=1;whiteSpace=wrap;html=1;absoluteArcSize=1;arcSize=14;strokeWidth=2;fillColor=#dae8fc;strokeColor=#6c8ebf;" vertex="1" parent="1">
          <mxGeometry x="1822" y="-15" width="78" height="26" as="geometry" />
        </mxCell>
        <mxCell id="XTZE2WU_NWd3jXHMlwdr-84" value="VNI 30000&lt;br&gt;VLAN 3000" style="rounded=1;whiteSpace=wrap;html=1;absoluteArcSize=1;arcSize=14;strokeWidth=2;fillColor=#dae8fc;strokeColor=#6c8ebf;" vertex="1" parent="1">
          <mxGeometry x="1822" y="-55" width="80" height="38" as="geometry" />
        </mxCell>
        <mxCell id="XTZE2WU_NWd3jXHMlwdr-85" value="VNI 30101&lt;br&gt;&lt;br&gt;VLAN 301" style="rounded=1;whiteSpace=wrap;html=1;absoluteArcSize=1;arcSize=14;strokeWidth=2;fillColor=#dae8fc;strokeColor=#6c8ebf;" vertex="1" parent="1">
          <mxGeometry x="1840" y="12" width="38" height="83" as="geometry" />
        </mxCell>
        <mxCell id="XTZE2WU_NWd3jXHMlwdr-86" value="Vrf_CAD" style="rounded=1;whiteSpace=wrap;html=1;absoluteArcSize=1;arcSize=14;strokeWidth=2;fillColor=#d5e8d4;strokeColor=#82b366;" vertex="1" parent="1">
          <mxGeometry x="223" y="-13" width="78" height="26" as="geometry" />
        </mxCell>
        <mxCell id="XTZE2WU_NWd3jXHMlwdr-87" value="VNI 20000&lt;br&gt;VLAN 2000" style="rounded=1;whiteSpace=wrap;html=1;absoluteArcSize=1;arcSize=14;strokeWidth=2;fillColor=#d5e8d4;strokeColor=#82b366;" vertex="1" parent="1">
          <mxGeometry x="223" y="-53" width="80" height="38" as="geometry" />
        </mxCell>
        <mxCell id="XTZE2WU_NWd3jXHMlwdr-88" value="VNI 20101&lt;br&gt;&lt;br&gt;VLAN 201" style="rounded=1;whiteSpace=wrap;html=1;absoluteArcSize=1;arcSize=14;strokeWidth=2;fillColor=#d5e8d4;strokeColor=#82b366;" vertex="1" parent="1">
          <mxGeometry x="241" y="14" width="38" height="83" as="geometry" />
        </mxCell>
        <mxCell id="XTZE2WU_NWd3jXHMlwdr-89" value="Vrf_ASU" style="rounded=1;whiteSpace=wrap;html=1;absoluteArcSize=1;arcSize=14;strokeWidth=2;fillColor=#dae8fc;strokeColor=#6c8ebf;" vertex="1" parent="1">
          <mxGeometry x="310" y="-13" width="78" height="26" as="geometry" />
        </mxCell>
        <mxCell id="XTZE2WU_NWd3jXHMlwdr-90" value="VNI 30000&lt;br&gt;VLAN 3000" style="rounded=1;whiteSpace=wrap;html=1;absoluteArcSize=1;arcSize=14;strokeWidth=2;fillColor=#dae8fc;strokeColor=#6c8ebf;" vertex="1" parent="1">
          <mxGeometry x="310" y="-53" width="80" height="38" as="geometry" />
        </mxCell>
        <mxCell id="XTZE2WU_NWd3jXHMlwdr-91" value="VNI 30101&lt;br&gt;&lt;br&gt;VLAN 301" style="rounded=1;whiteSpace=wrap;html=1;absoluteArcSize=1;arcSize=14;strokeWidth=2;fillColor=#dae8fc;strokeColor=#6c8ebf;" vertex="1" parent="1">
          <mxGeometry x="328" y="14" width="38" height="83" as="geometry" />
        </mxCell>
        <mxCell id="XTZE2WU_NWd3jXHMlwdr-92" value="Vrf_ADM" style="rounded=1;whiteSpace=wrap;html=1;absoluteArcSize=1;arcSize=14;strokeWidth=2;fillColor=#f8cecc;strokeColor=#b85450;" vertex="1" parent="1">
          <mxGeometry x="1195" y="-496" width="78" height="26" as="geometry" />
        </mxCell>
        <mxCell id="XTZE2WU_NWd3jXHMlwdr-93" value="VNI 10000&lt;br&gt;VLAN 1000" style="rounded=1;whiteSpace=wrap;html=1;absoluteArcSize=1;arcSize=14;strokeWidth=2;fillColor=#f8cecc;strokeColor=#b85450;" vertex="1" parent="1">
          <mxGeometry x="1195" y="-536" width="80" height="38" as="geometry" />
        </mxCell>
        <mxCell id="XTZE2WU_NWd3jXHMlwdr-94" value="Vrf_CAD" style="rounded=1;whiteSpace=wrap;html=1;absoluteArcSize=1;arcSize=14;strokeWidth=2;fillColor=#d5e8d4;strokeColor=#82b366;" vertex="1" parent="1">
          <mxGeometry x="1284" y="-495" width="78" height="26" as="geometry" />
        </mxCell>
        <mxCell id="XTZE2WU_NWd3jXHMlwdr-95" value="VNI 20000&lt;br&gt;VLAN 2000" style="rounded=1;whiteSpace=wrap;html=1;absoluteArcSize=1;arcSize=14;strokeWidth=2;fillColor=#d5e8d4;strokeColor=#82b366;" vertex="1" parent="1">
          <mxGeometry x="1284" y="-535" width="80" height="38" as="geometry" />
        </mxCell>
        <mxCell id="XTZE2WU_NWd3jXHMlwdr-96" value="Vrf_ASU" style="rounded=1;whiteSpace=wrap;html=1;absoluteArcSize=1;arcSize=14;strokeWidth=2;fillColor=#dae8fc;strokeColor=#6c8ebf;" vertex="1" parent="1">
          <mxGeometry x="1371" y="-495" width="78" height="26" as="geometry" />
        </mxCell>
        <mxCell id="XTZE2WU_NWd3jXHMlwdr-97" value="VNI 30000&lt;br&gt;VLAN 3000" style="rounded=1;whiteSpace=wrap;html=1;absoluteArcSize=1;arcSize=14;strokeWidth=2;fillColor=#dae8fc;strokeColor=#6c8ebf;" vertex="1" parent="1">
          <mxGeometry x="1371" y="-535" width="80" height="38" as="geometry" />
        </mxCell>
        <mxCell id="XTZE2WU_NWd3jXHMlwdr-98" value="Vrf_INT" style="rounded=1;whiteSpace=wrap;html=1;absoluteArcSize=1;arcSize=14;strokeWidth=2;fillColor=#1ba1e2;strokeColor=#006EAF;fontColor=#ffffff;" vertex="1" parent="1">
          <mxGeometry x="1181" y="-713" width="78" height="26" as="geometry" />
        </mxCell>
        <mxCell id="XTZE2WU_NWd3jXHMlwdr-99" value="Vrf_ADM" style="rounded=1;whiteSpace=wrap;html=1;absoluteArcSize=1;arcSize=14;strokeWidth=2;fillColor=#f8cecc;strokeColor=#b85450;" vertex="1" parent="1">
          <mxGeometry x="1380" y="-703" width="78" height="26" as="geometry" />
        </mxCell>
        <mxCell id="XTZE2WU_NWd3jXHMlwdr-100" value="Vrf_External" style="rounded=1;whiteSpace=wrap;html=1;absoluteArcSize=1;arcSize=14;strokeWidth=2;fillColor=#0050ef;strokeColor=#001DBC;fontColor=#ffffff;" vertex="1" parent="1">
          <mxGeometry x="1380" y="-736" width="78" height="26" as="geometry" />
        </mxCell>
        <mxCell id="XTZE2WU_NWd3jXHMlwdr-101" value="RID: 100.100.100.1&lt;br&gt;Lo1: 100.100.100.1/32&lt;br&gt;Ethernet0 200.200.0.1/16" style="text;strokeColor=#001DBC;align=center;fillColor=#0050ef;html=1;verticalAlign=middle;whiteSpace=wrap;rounded=0;fontColor=#ffffff;" vertex="1" parent="1">
          <mxGeometry x="1477" y="-768" width="132" height="60" as="geometry" />
        </mxCell>
        <mxCell id="XTZE2WU_NWd3jXHMlwdr-102" value="" style="endArrow=none;html=1;rounded=0;entryX=0.5;entryY=1;entryDx=0;entryDy=0;entryPerimeter=0;fontSize=11;strokeColor=#990099;exitX=0.88;exitY=0.1;exitDx=0;exitDy=0;exitPerimeter=0;" edge="1" parent="1" source="XTZE2WU_NWd3jXHMlwdr-25" target="XTZE2WU_NWd3jXHMlwdr-22">
          <mxGeometry width="50" height="50" relative="1" as="geometry">
            <mxPoint x="822" y="-32" as="sourcePoint" />
            <mxPoint x="1782" y="-282" as="targetPoint" />
          </mxGeometry>
        </mxCell>
        <mxCell id="XTZE2WU_NWd3jXHMlwdr-103" value="" style="endArrow=none;html=1;rounded=0;entryX=1;entryY=0.5;entryDx=0;entryDy=0;entryPerimeter=0;fontSize=8;strokeColor=#000099;exitX=0.372;exitY=-0.038;exitDx=0;exitDy=0;exitPerimeter=0;" edge="1" parent="1" source="XTZE2WU_NWd3jXHMlwdr-42" target="XTZE2WU_NWd3jXHMlwdr-21">
          <mxGeometry width="50" height="50" relative="1" as="geometry">
            <mxPoint x="1645" y="-5" as="sourcePoint" />
            <mxPoint x="982" y="-203" as="targetPoint" />
          </mxGeometry>
        </mxCell>
        <mxCell id="XTZE2WU_NWd3jXHMlwdr-104" value="CRM: &lt;br&gt;Network: 10.4.8.0/22&lt;br&gt;Anycast GW:&amp;nbsp;10.4.11.254/22&lt;br&gt;&lt;br&gt;1C:&lt;br&gt;Network:&amp;nbsp;10.4.12.0/22&lt;br&gt;Anycast GW: 10.4.15.254/22" style="ellipse;shape=cloud;whiteSpace=wrap;html=1;fillColor=#f8cecc;strokeColor=#b85450;rounded=1;arcSize=14;strokeWidth=2;align=center;" vertex="1" parent="1">
          <mxGeometry x="521" y="-542" width="258" height="179" as="geometry" />
        </mxCell>
        <mxCell id="XTZE2WU_NWd3jXHMlwdr-105" value="CAD: &lt;br&gt;Network: 10.4.24.0/22&lt;br&gt;Anycast GW:&amp;nbsp;10.4.27.254/22" style="ellipse;shape=cloud;whiteSpace=wrap;html=1;fillColor=#d5e8d4;strokeColor=#82b366;rounded=1;arcSize=14;strokeWidth=2;" vertex="1" parent="1">
          <mxGeometry x="533" y="-295" width="234" height="87" as="geometry" />
        </mxCell>
        <mxCell id="XTZE2WU_NWd3jXHMlwdr-106" value="ASU: &lt;br&gt;Network: 10.8.0.0/16&lt;br&gt;Anycast GW: 10.8.255.254/16" style="ellipse;shape=cloud;whiteSpace=wrap;html=1;fillColor=#dae8fc;strokeColor=#6c8ebf;rounded=1;arcSize=14;strokeWidth=2;" vertex="1" parent="1">
          <mxGeometry x="528" y="-169" width="234" height="87" as="geometry" />
        </mxCell>
        <mxCell id="XTZE2WU_NWd3jXHMlwdr-107" value="10.4.8.1/22" style="text;strokeColor=#b85450;align=center;fillColor=#f8cecc;html=1;verticalAlign=middle;whiteSpace=wrap;rounded=1;arcSize=14;strokeWidth=2;" vertex="1" parent="1">
          <mxGeometry x="734" y="97" width="77" height="30" as="geometry" />
        </mxCell>
        <mxCell id="XTZE2WU_NWd3jXHMlwdr-108" value="10.4.12.1/22" style="text;strokeColor=#b85450;align=center;fillColor=#f8cecc;html=1;verticalAlign=middle;whiteSpace=wrap;rounded=1;arcSize=14;strokeWidth=2;" vertex="1" parent="1">
          <mxGeometry x="983" y="130" width="77" height="30" as="geometry" />
        </mxCell>
        <mxCell id="XTZE2WU_NWd3jXHMlwdr-109" value="10.4.24.1/22" style="text;strokeColor=#82b366;align=center;fillColor=#d5e8d4;html=1;verticalAlign=middle;whiteSpace=wrap;rounded=1;arcSize=14;strokeWidth=2;" vertex="1" parent="1">
          <mxGeometry x="1186" y="125" width="77" height="30" as="geometry" />
        </mxCell>
        <mxCell id="XTZE2WU_NWd3jXHMlwdr-110" value="10.4.8.2/22" style="text;strokeColor=#b85450;align=center;fillColor=#f8cecc;html=1;verticalAlign=middle;whiteSpace=wrap;rounded=1;arcSize=14;strokeWidth=2;" vertex="1" parent="1">
          <mxGeometry x="1556" y="137" width="77" height="30" as="geometry" />
        </mxCell>
        <mxCell id="XTZE2WU_NWd3jXHMlwdr-111" value="10.4.12.2/22" style="text;strokeColor=#b85450;align=center;fillColor=#f8cecc;html=1;verticalAlign=middle;whiteSpace=wrap;rounded=1;arcSize=14;strokeWidth=2;" vertex="1" parent="1">
          <mxGeometry x="1893" y="139" width="77" height="30" as="geometry" />
        </mxCell>
        <mxCell id="XTZE2WU_NWd3jXHMlwdr-112" value="10.8.0.2/16" style="text;strokeColor=#6c8ebf;align=center;fillColor=#dae8fc;html=1;verticalAlign=middle;whiteSpace=wrap;rounded=1;arcSize=14;strokeWidth=2;" vertex="1" parent="1">
          <mxGeometry x="1731" y="150" width="77" height="30" as="geometry" />
        </mxCell>
        <mxCell id="XTZE2WU_NWd3jXHMlwdr-113" value="10.4.24.2/22" style="text;strokeColor=#82b366;align=center;fillColor=#d5e8d4;html=1;verticalAlign=middle;whiteSpace=wrap;rounded=1;arcSize=14;strokeWidth=2;" vertex="1" parent="1">
          <mxGeometry x="110" y="115" width="77" height="30" as="geometry" />
        </mxCell>
        <mxCell id="XTZE2WU_NWd3jXHMlwdr-114" value="10.8.0.1/16" style="text;strokeColor=#6c8ebf;align=center;fillColor=#dae8fc;html=1;verticalAlign=middle;whiteSpace=wrap;rounded=1;arcSize=14;strokeWidth=2;" vertex="1" parent="1">
          <mxGeometry x="423" y="124" width="77" height="30" as="geometry" />
        </mxCell>
      </root>
    </mxGraphModel>
  </diagram>
</mxfile>
